<?xml version="1.0" encoding="UTF-8" standalone="no"?>
<!-- Generator: Adobe Illustrator 15.0.2, SVG Export Plug-In . SVG Version: 6.00 Build 0)  -->

<svg
   xmlns:dc="http://purl.org/dc/elements/1.1/"
   xmlns:cc="http://creativecommons.org/ns#"
   xmlns:rdf="http://www.w3.org/1999/02/22-rdf-syntax-ns#"
   xmlns:svg="http://www.w3.org/2000/svg"
   xmlns="http://www.w3.org/2000/svg"
   xmlns:sodipodi="http://sodipodi.sourceforge.net/DTD/sodipodi-0.dtd"
   xmlns:inkscape="http://www.inkscape.org/namespaces/inkscape"
   version="1.1"
   x="0px"
   y="0px"
   width="58.136997"
   height="88.227997"
   viewBox="0 0 58.136999 88.227995"
   enable-background="new 0 0 57.6 86.4"
   xml:space="preserve"
   id="svg2"
   inkscape:version="0.48.2 r9819"
   sodipodi:docname="Par_Can.svg"><metadata
   id="metadata14"><rdf:RDF><cc:Work
       rdf:about=""><dc:format>image/svg+xml</dc:format><dc:type
         rdf:resource="http://purl.org/dc/dcmitype/StillImage" /></cc:Work></rdf:RDF></metadata><defs
   id="defs12" /><sodipodi:namedview
   pagecolor="#ffffff"
   bordercolor="#666666"
   borderopacity="1"
   objecttolerance="10"
   gridtolerance="10"
   guidetolerance="10"
   inkscape:pageopacity="0"
   inkscape:pageshadow="2"
   inkscape:window-width="640"
   inkscape:window-height="480"
   id="namedview10"
   showgrid="false"
   fit-margin-top="2"
   fit-margin-left="1"
   fit-margin-right="1"
   fit-margin-bottom="1"
   inkscape:zoom="2.7314814"
   inkscape:cx="29.557999"
   inkscape:cy="42.732"
   inkscape:window-x="0"
   inkscape:window-y="0"
   inkscape:window-maximized="0"
   inkscape:current-layer="svg2" />
<g
   id="etc_symbol_base"
   transform="translate(0.75800003,2.2959978)">
	<path
   d="m 54.379,27.773 c 0,-14.397 -11.67,-26.069 -26.068,-26.069 -14.397,0 -26.069,11.672 -26.069,26.069 0,18.386 0,36.773 0,55.159 17.379,0 34.758,0 52.137,0 0,-18.385 0,-36.773 0,-55.159 z"
   id="path5"
   inkscape:connector-curvature="0"
   style="fill:#294663" />
</g>
<g
   id="etc_symbol_outline"
   transform="translate(0.75800003,2.2959978)">
	<path
   d="m 54.379,27.773 c 0,-14.397 -11.67,-26.069 -26.068,-26.069 -14.397,0 -26.069,11.672 -26.069,26.069 0,18.386 0,36.773 0,55.159 17.379,0 34.758,0 52.137,0 0,-18.385 0,-36.773 0,-55.159 z"
   id="path8"
   inkscape:connector-curvature="0"
   style="fill:none;stroke:#ffffff;stroke-width:4;stroke-linecap:round;stroke-linejoin:round" />
</g>
</svg>