<?xml version="1.0" encoding="utf-8"?>
<!-- Generator: Adobe Illustrator 15.0.2, SVG Export Plug-In . SVG Version: 6.00 Build 0)  -->
<!DOCTYPE svg PUBLIC "-//W3C//DTD SVG 1.1//EN" "http://www.w3.org/Graphics/SVG/1.1/DTD/svg11.dtd">
<svg version="1.1" xmlns="http://www.w3.org/2000/svg" xmlns:xlink="http://www.w3.org/1999/xlink" x="0px" y="0px" width="64.8px"
	 height="79.2px" viewBox="0 0 64.8 79.2" enable-background="new 0 0 64.8 79.2" xml:space="preserve">
<g id="etc_symbol_base">
	<path fill="#294663" d="M40.181,13.182c7.114,3.902,13.624,10.125,19.531,18.67c0,13.647,0,27.295,0,40.942
		c-9.14,0-18.278,0-27.417,0c-9.139,0-18.278,0-27.417,0c0-13.647,0-27.295,0-40.942c5.907-8.545,12.417-14.768,19.532-18.67
		c0.173-2.679,0.346-5.357,0.52-8.036c2.455,0,4.911,0,7.366,0c2.455,0,4.91,0,7.366,0C39.834,7.825,40.008,10.503,40.181,13.182z"
		/>
</g>
<g id="etc_symbol_outline">
	<path fill="none" stroke="#FFFFFF" stroke-width="4" stroke-linecap="round" stroke-linejoin="round" d="M40.181,13.182
		c7.114,3.902,13.624,10.125,19.531,18.67c0,13.647,0,27.295,0,40.942c-9.14,0-18.278,0-27.417,0c-9.139,0-18.278,0-27.417,0
		c0-13.647,0-27.295,0-40.942c5.907-8.545,12.417-14.768,19.532-18.67c0.173-2.679,0.346-5.357,0.52-8.036c2.455,0,4.911,0,7.366,0
		c2.455,0,4.91,0,7.366,0C39.834,7.825,40.008,10.503,40.181,13.182z"/>
</g>
</svg>
