<?xml version="1.0" encoding="utf-8"?>
<!-- Generator: Adobe Illustrator 15.0.2, SVG Export Plug-In . SVG Version: 6.00 Build 0)  -->
<!DOCTYPE svg PUBLIC "-//W3C//DTD SVG 1.1//EN" "http://www.w3.org/Graphics/SVG/1.1/DTD/svg11.dtd">
<svg version="1.1" xmlns="http://www.w3.org/2000/svg" xmlns:xlink="http://www.w3.org/1999/xlink" x="0px" y="0px" width="64.8px"
	 height="86.4px" viewBox="0 0 64.8 86.4" enable-background="new 0 0 64.8 86.4" xml:space="preserve">
<g id="etc_symbol_base">
	<path fill="#294663" d="M58.554,19.834c-0.035-0.545-0.07-1.09-0.104-1.634c-0.08-1.188-0.161-2.374-0.242-3.561
		c-0.008-0.132-0.018-0.263-0.027-0.394c-0.01-0.132-0.02-0.263-0.028-0.394c-0.009-0.122-0.026-0.244-0.054-0.363
		s-0.063-0.234-0.105-0.347c-0.044-0.113-0.098-0.224-0.158-0.33s-0.129-0.207-0.205-0.302c-0.076-0.097-0.159-0.188-0.248-0.27
		c-0.089-0.083-0.184-0.158-0.283-0.227s-0.207-0.13-0.316-0.183c-0.109-0.054-0.223-0.098-0.34-0.135
		c-0.119-0.037-0.24-0.074-0.359-0.11c-0.061-0.018-0.121-0.036-0.182-0.055c-0.06-0.018-0.119-0.036-0.18-0.054
		c-0.242-0.072-0.482-0.143-0.725-0.213c-0.175-0.051-0.35-0.101-0.525-0.149c-0.047-0.453-0.094-0.905-0.141-1.358
		c-0.01-0.107-0.018-0.214-0.031-0.321c-0.03-0.235-0.084-0.469-0.148-0.7c-0.064-0.232-0.14-0.464-0.229-0.689
		c-0.088-0.225-0.189-0.445-0.303-0.66c-0.112-0.211-0.236-0.417-0.371-0.615c-0.135-0.201-0.282-0.394-0.44-0.579
		c-0.156-0.185-0.323-0.361-0.501-0.527c-0.174-0.165-0.358-0.319-0.55-0.464c-0.19-0.144-0.389-0.277-0.594-0.4
		c-0.206-0.124-0.42-0.238-0.64-0.338c-0.217-0.099-0.439-0.184-0.664-0.263c-0.223-0.078-0.447-0.15-0.678-0.188
		c-0.001,0-0.001,0-0.001,0c-0.101-0.018-0.198-0.035-0.298-0.054c-1.092-0.191-2.186-0.36-3.283-0.511
		c-0.027-0.002-0.057-0.005-0.086-0.009c-0.16-0.017-0.348-0.038-0.544-0.061c-0.197-0.023-0.405-0.049-0.612-0.074
		c-7.973-0.979-15.773-0.979-23.745,0C20.405,3.331,20.197,3.356,20,3.379c-0.197,0.022-0.383,0.044-0.544,0.061
		c-0.029,0.004-0.057,0.007-0.085,0.009c-1.097,0.15-2.191,0.319-3.282,0.511c-0.102,0.021-0.203,0.039-0.304,0.058
		c-0.019,0.003-0.038,0.007-0.058,0.011c-0.23,0.042-0.454,0.114-0.675,0.193c-0.224,0.08-0.444,0.167-0.658,0.267
		c-0.209,0.098-0.414,0.209-0.612,0.329c-0.2,0.121-0.394,0.253-0.579,0.394c-0.189,0.143-0.371,0.296-0.542,0.458
		C12.488,5.83,12.327,6,12.175,6.176c-0.151,0.178-0.293,0.362-0.425,0.554c-0.135,0.195-0.259,0.397-0.371,0.604
		c-0.114,0.21-0.215,0.425-0.304,0.645c-0.089,0.218-0.164,0.439-0.229,0.664c-0.066,0.229-0.123,0.459-0.158,0.692
		c-0.021,0.141-0.034,0.281-0.05,0.423c-0.045,0.452-0.091,0.905-0.136,1.357c-0.176,0.05-0.353,0.1-0.528,0.15
		c-0.241,0.069-0.482,0.141-0.724,0.213c-0.06,0.018-0.12,0.035-0.181,0.054c-0.03,0.01-0.06,0.019-0.09,0.027
		c-0.03,0.01-0.06,0.019-0.09,0.027c-0.121,0.036-0.241,0.073-0.361,0.11s-0.236,0.084-0.347,0.138
		c-0.112,0.055-0.219,0.117-0.322,0.189c-0.187,0.13-0.352,0.282-0.496,0.459c-0.064,0.078-0.122,0.16-0.176,0.245
		c-0.106,0.169-0.191,0.349-0.253,0.537c-0.031,0.094-0.056,0.191-0.075,0.289c-0.02,0.099-0.033,0.197-0.04,0.298
		c-0.01,0.131-0.02,0.262-0.029,0.394c-0.01,0.131-0.019,0.262-0.028,0.394c-0.08,1.187-0.16,2.373-0.241,3.561
		c-0.035,0.544-0.07,1.089-0.105,1.634c0,15.561,0,31.12,0,46.681c-0.641,0-1.281,0-1.922,0c0,5.539,0,11.078,0,16.618
		c0.257,0,0.514,0,0.771,0c9.074,0,18.147,0,27.221,0s18.146,0,27.22,0c0.257,0,0.514,0,0.771,0c0-5.54,0-11.079,0-16.618
		c-0.642,0-1.283,0-1.923,0C58.554,50.955,58.554,35.395,58.554,19.834z"/>
</g>
<g id="etc_symbol_outline">
	<path fill="none" stroke="#FFFFFF" stroke-width="4" stroke-linecap="round" stroke-linejoin="round" d="M58.554,19.834
		c-0.035-0.545-0.07-1.09-0.104-1.634c-0.08-1.188-0.161-2.374-0.242-3.561c-0.008-0.132-0.018-0.263-0.027-0.394
		c-0.01-0.132-0.02-0.263-0.028-0.394c-0.009-0.122-0.026-0.244-0.054-0.363s-0.063-0.234-0.105-0.347
		c-0.044-0.113-0.098-0.224-0.158-0.33s-0.129-0.207-0.205-0.302c-0.076-0.097-0.159-0.188-0.248-0.27
		c-0.089-0.083-0.184-0.158-0.283-0.227s-0.207-0.13-0.316-0.183c-0.109-0.054-0.223-0.098-0.34-0.135
		c-0.119-0.037-0.24-0.074-0.359-0.11c-0.061-0.018-0.121-0.036-0.182-0.055c-0.06-0.018-0.119-0.036-0.18-0.054
		c-0.242-0.072-0.482-0.143-0.725-0.213c-0.175-0.051-0.35-0.101-0.525-0.149c-0.047-0.453-0.094-0.905-0.141-1.358
		c-0.01-0.107-0.018-0.214-0.031-0.321c-0.03-0.235-0.084-0.469-0.148-0.7c-0.064-0.232-0.14-0.464-0.229-0.689
		c-0.088-0.225-0.189-0.445-0.303-0.66c-0.112-0.211-0.236-0.417-0.371-0.615c-0.135-0.201-0.282-0.394-0.44-0.579
		c-0.156-0.185-0.323-0.361-0.501-0.527c-0.174-0.165-0.358-0.319-0.55-0.464c-0.19-0.144-0.389-0.277-0.594-0.4
		c-0.206-0.124-0.42-0.238-0.64-0.338c-0.217-0.099-0.439-0.184-0.664-0.263c-0.223-0.078-0.447-0.15-0.678-0.188
		c-0.001,0-0.001,0-0.001,0c-0.101-0.018-0.198-0.035-0.298-0.054c-1.092-0.191-2.186-0.36-3.283-0.511
		c-0.027-0.002-0.057-0.005-0.086-0.009c-0.16-0.017-0.348-0.038-0.544-0.061c-0.197-0.023-0.405-0.049-0.612-0.074
		c-7.973-0.979-15.773-0.979-23.745,0C20.405,3.331,20.197,3.356,20,3.379c-0.197,0.022-0.383,0.044-0.544,0.061
		c-0.029,0.004-0.057,0.007-0.085,0.009c-1.097,0.15-2.191,0.319-3.282,0.511c-0.102,0.021-0.203,0.039-0.304,0.058
		c-0.019,0.003-0.038,0.007-0.058,0.011c-0.23,0.042-0.454,0.114-0.675,0.193c-0.224,0.08-0.444,0.167-0.658,0.267
		c-0.209,0.098-0.414,0.209-0.612,0.329c-0.2,0.121-0.394,0.253-0.579,0.394c-0.189,0.143-0.371,0.296-0.542,0.458
		C12.488,5.83,12.327,6,12.175,6.176c-0.151,0.178-0.293,0.362-0.425,0.554c-0.135,0.195-0.259,0.397-0.371,0.604
		c-0.114,0.21-0.215,0.425-0.304,0.645c-0.089,0.218-0.164,0.439-0.229,0.664c-0.066,0.229-0.123,0.459-0.158,0.692
		c-0.021,0.141-0.034,0.281-0.05,0.423c-0.045,0.452-0.091,0.905-0.136,1.357c-0.176,0.05-0.353,0.1-0.528,0.15
		c-0.241,0.069-0.482,0.141-0.724,0.213c-0.06,0.018-0.12,0.035-0.181,0.054c-0.03,0.01-0.06,0.019-0.09,0.027
		c-0.03,0.01-0.06,0.019-0.09,0.027c-0.121,0.036-0.241,0.073-0.361,0.11s-0.236,0.084-0.347,0.138
		c-0.112,0.055-0.219,0.117-0.322,0.189c-0.187,0.13-0.352,0.282-0.496,0.459c-0.064,0.078-0.122,0.16-0.176,0.245
		c-0.106,0.169-0.191,0.349-0.253,0.537c-0.031,0.094-0.056,0.191-0.075,0.289c-0.02,0.099-0.033,0.197-0.04,0.298
		c-0.01,0.131-0.02,0.262-0.029,0.394c-0.01,0.131-0.019,0.262-0.028,0.394c-0.08,1.187-0.16,2.373-0.241,3.561
		c-0.035,0.544-0.07,1.089-0.105,1.634c0,15.561,0,31.12,0,46.681c-0.641,0-1.281,0-1.922,0c0,5.539,0,11.078,0,16.618
		c0.257,0,0.514,0,0.771,0c9.074,0,18.147,0,27.221,0s18.146,0,27.22,0c0.257,0,0.514,0,0.771,0c0-5.54,0-11.079,0-16.618
		c-0.642,0-1.283,0-1.923,0C58.554,50.955,58.554,35.395,58.554,19.834z"/>
</g>
</svg>
