<?xml version="1.0" encoding="UTF-8" standalone="no"?>
<!-- Generator: Adobe Illustrator 15.0.2, SVG Export Plug-In . SVG Version: 6.00 Build 0)  -->

<svg
   xmlns:dc="http://purl.org/dc/elements/1.1/"
   xmlns:cc="http://creativecommons.org/ns#"
   xmlns:rdf="http://www.w3.org/1999/02/22-rdf-syntax-ns#"
   xmlns:svg="http://www.w3.org/2000/svg"
   xmlns="http://www.w3.org/2000/svg"
   xmlns:sodipodi="http://sodipodi.sourceforge.net/DTD/sodipodi-0.dtd"
   xmlns:inkscape="http://www.inkscape.org/namespaces/inkscape"
   version="1.1"
   x="0px"
   y="0px"
   width="64.8px"
   height="108px"
   viewBox="0 0 64.8 108"
   enable-background="new 0 0 64.8 108"
   xml:space="preserve"
   id="svg2"
   inkscape:version="0.48.2 r9819"
   sodipodi:docname="Desire.svg"><metadata
   id="metadata14"><rdf:RDF><cc:Work
       rdf:about=""><dc:format>image/svg+xml</dc:format><dc:type
         rdf:resource="http://purl.org/dc/dcmitype/StillImage" /></cc:Work></rdf:RDF></metadata><defs
   id="defs12" /><sodipodi:namedview
   pagecolor="#ffffff"
   bordercolor="#666666"
   borderopacity="1"
   objecttolerance="10"
   gridtolerance="10"
   guidetolerance="10"
   inkscape:pageopacity="0"
   inkscape:pageshadow="2"
   inkscape:window-width="640"
   inkscape:window-height="480"
   id="namedview10"
   showgrid="false"
   borderlayer="false"
   inkscape:zoom="2.1851852"
   inkscape:cx="3.3275501"
   inkscape:cy="54"
   inkscape:window-x="0"
   inkscape:window-y="0"
   inkscape:window-maximized="0"
   inkscape:current-layer="svg2" />
<g
   id="etc_symbol_base"
   transform="translate(0,2)">
	<path
   d="m 4.242,43.197 c -0.259,12.94 -0.259,14.235 1.532,29.263 8.966,0 17.932,0 26.898,0 8.966,0 17.933,0 26.897,0 1.791,-15.028 1.791,-16.323 1.533,-29.263 0,-0.001 0,-0.001 0,-0.001 -0.025,0 -0.055,0 -0.09,0 -0.016,0 -0.031,0 -0.047,0.001 -0.006,0 -0.012,0 -0.017,0 -0.8,0 -1.601,0 -2.401,0 C 58.246,40.221 57.945,37.246 57.645,34.27 57.566,33.179 57.485,32.089 57.418,30.998 57.344,29.805 57.287,28.61 57.234,27.416 57.183,26.206 57.137,24.998 57.097,23.789 57.056,22.587 57.021,21.385 56.99,20.183 56.959,19.006 56.929,17.829 56.901,16.652 56.875,15.517 56.847,14.381 56.82,13.246 56.794,12.165 56.766,11.085 56.736,10.005 56.709,8.991 56.679,7.98 56.642,6.967 56.611,6.126 56.576,5.285 56.54,4.445 56.548,3.985 56.555,3.525 56.48,3.069 56.459,2.948 56.434,2.828 56.388,2.715 56.339,2.595 56.266,2.485 56.179,2.387 56.088,2.285 55.981,2.197 55.862,2.136 55.745,2.075 55.616,2.04 55.487,2.006 55.471,2.006 55.456,2.005 55.409,2.005 55.364,2.005 55.29,2.004 55.198,2.004 55.116,2.003 55.016,2.003 54.901,2.003 54.797,2.002 54.677,2.002 54.544,2.002 54.387,2 54.207,2 54.001,2 53.825,2 53.63,2 53.422,2 53.251,2 53.069,2 52.884,2 52.729,2 52.57,2 52.405,2 52.249,2 52.089,2 51.928,2 51.785,2 51.643,2 51.469,2 51.348,2 51.213,2 51.064,2 50.87,2 50.653,2 50.426,2 50.283,2 50.139,2 49.988,2 49.817,2 49.64,2 49.463,2 49.228,2 48.988,2 48.75,2 c -0.051,0 -0.104,0 -0.156,0 -0.076,0.382 -0.153,0.764 -0.23,1.146 -10.461,0 -20.923,0 -31.385,0 C 16.955,3.005 16.932,2.866 16.91,2.735 16.889,2.61 16.87,2.494 16.853,2.393 16.836,2.291 16.822,2.206 16.811,2.139 16.799,2.072 16.791,2.022 16.789,2.005 c 0,-10e-4 0,-0.002 0,-0.004 C 16.751,2 16.713,2 16.675,2 16.438,2 16.2,2 15.965,2 15.787,2 15.611,2 15.44,2 15.29,2 15.144,2 15.002,2 14.774,2 14.556,2 14.363,2 14.177,2 14.014,2 13.87,2 c -0.158,0 -0.294,0 -0.431,0 -0.15,0 -0.301,0 -0.448,0 -0.154,0 -0.302,0 -0.447,0 -0.187,0 -0.367,0 -0.539,0 -0.208,0 -0.402,0 -0.58,10e-4 -0.204,0 -0.385,0 -0.544,0 -0.135,10e-4 -0.254,10e-4 -0.359,0.002 -0.117,0 -0.216,0 -0.3,10e-4 C 10.13,2.005 10.055,2.005 10.01,2.006 9.965,2.008 9.948,2.008 9.933,2.008 9.844,2.03 9.755,2.054 9.67,2.089 9.573,2.129 9.482,2.185 9.401,2.251 9.312,2.323 9.234,2.407 9.168,2.501 9.099,2.599 9.045,2.706 9.01,2.819 8.962,2.979 8.955,3.147 8.947,3.314 8.938,3.496 8.931,3.677 8.923,3.857 8.915,4.053 8.906,4.248 8.898,4.443 8.873,5.037 8.848,5.629 8.825,6.221 8.794,7.011 8.769,7.8 8.745,8.588 8.718,9.481 8.693,10.373 8.669,11.265 8.643,12.259 8.619,13.253 8.595,14.247 8.569,15.339 8.544,16.431 8.517,17.521 8.489,18.7 8.458,19.878 8.426,21.057 8.396,22.124 8.363,23.192 8.327,24.26 8.289,25.365 8.246,26.471 8.198,27.576 8.149,28.701 8.094,29.827 8.025,30.951 7.958,32.058 7.877,33.164 7.796,34.269 7.495,37.245 7.194,40.22 6.893,43.196 c -0.8,0 -1.601,0 -2.4,0 -0.006,0 -0.012,0 -0.017,0 -0.016,-10e-4 -0.032,-10e-4 -0.047,-10e-4 -0.091,10e-4 -0.153,10e-4 -0.187,0.002 0,-0.001 0,-0.001 0,0 z"
   id="path5"
   inkscape:connector-curvature="0"
   style="fill:#294663" />
</g>
<g
   id="etc_symbol_outline"
   transform="translate(0,2)">
	<path
   d="m 4.242,43.197 c -0.259,12.94 -0.259,14.235 1.532,29.263 8.966,0 17.932,0 26.898,0 8.966,0 17.933,0 26.897,0 1.791,-15.028 1.791,-16.323 1.533,-29.263 0,-0.001 0,-0.001 0,-0.001 -0.025,0 -0.055,0 -0.09,0 -0.016,0 -0.031,0 -0.047,0.001 -0.006,0 -0.012,0 -0.017,0 -0.8,0 -1.601,0 -2.401,0 C 58.246,40.221 57.945,37.246 57.645,34.27 57.566,33.179 57.485,32.089 57.418,30.998 57.344,29.805 57.287,28.61 57.234,27.416 57.183,26.206 57.137,24.998 57.097,23.789 57.056,22.587 57.021,21.385 56.99,20.183 56.959,19.006 56.929,17.829 56.901,16.652 56.875,15.517 56.847,14.381 56.82,13.246 56.794,12.165 56.766,11.085 56.736,10.005 56.709,8.991 56.679,7.98 56.642,6.967 56.611,6.126 56.576,5.285 56.54,4.445 56.548,3.985 56.555,3.525 56.48,3.069 56.459,2.948 56.434,2.828 56.388,2.715 56.339,2.595 56.266,2.485 56.179,2.387 56.088,2.285 55.981,2.197 55.862,2.136 55.745,2.075 55.616,2.04 55.487,2.006 55.471,2.006 55.456,2.005 55.409,2.005 55.364,2.005 55.29,2.004 55.198,2.004 55.116,2.003 55.016,2.003 54.901,2.003 54.797,2.002 54.677,2.002 54.544,2.002 54.387,2 54.207,2 54.001,2 53.825,2 53.63,2 53.422,2 53.251,2 53.069,2 52.884,2 52.729,2 52.57,2 52.405,2 52.249,2 52.089,2 51.928,2 51.785,2 51.643,2 51.469,2 51.348,2 51.213,2 51.064,2 50.87,2 50.653,2 50.426,2 50.283,2 50.139,2 49.988,2 49.817,2 49.64,2 49.463,2 49.228,2 48.988,2 48.75,2 c -0.051,0 -0.104,0 -0.156,0 -0.076,0.382 -0.153,0.764 -0.23,1.146 -10.461,0 -20.923,0 -31.385,0 C 16.955,3.005 16.932,2.866 16.91,2.735 16.889,2.61 16.87,2.494 16.853,2.393 16.836,2.291 16.822,2.206 16.811,2.139 16.799,2.072 16.791,2.022 16.789,2.005 c 0,-10e-4 0,-0.002 0,-0.004 C 16.751,2 16.713,2 16.675,2 16.438,2 16.2,2 15.965,2 15.787,2 15.611,2 15.44,2 15.29,2 15.144,2 15.002,2 14.774,2 14.556,2 14.363,2 14.177,2 14.014,2 13.87,2 c -0.158,0 -0.294,0 -0.431,0 -0.15,0 -0.301,0 -0.448,0 -0.154,0 -0.302,0 -0.447,0 -0.187,0 -0.367,0 -0.539,0 -0.208,0 -0.402,0 -0.58,10e-4 -0.204,0 -0.385,0 -0.544,0 -0.135,10e-4 -0.254,10e-4 -0.359,0.002 -0.117,0 -0.216,0 -0.3,10e-4 C 10.13,2.005 10.055,2.005 10.01,2.006 9.965,2.008 9.948,2.008 9.933,2.008 9.844,2.03 9.755,2.054 9.67,2.089 9.573,2.129 9.482,2.185 9.401,2.251 9.312,2.323 9.234,2.407 9.168,2.501 9.099,2.599 9.045,2.706 9.01,2.819 8.962,2.979 8.955,3.147 8.947,3.314 8.938,3.496 8.931,3.677 8.923,3.857 8.915,4.053 8.906,4.248 8.898,4.443 8.873,5.037 8.848,5.629 8.825,6.221 8.794,7.011 8.769,7.8 8.745,8.588 8.718,9.481 8.693,10.373 8.669,11.265 8.643,12.259 8.619,13.253 8.595,14.247 8.569,15.339 8.544,16.431 8.517,17.521 8.489,18.7 8.458,19.878 8.426,21.057 8.396,22.124 8.363,23.192 8.327,24.26 8.289,25.365 8.246,26.471 8.198,27.576 8.149,28.701 8.094,29.827 8.025,30.951 7.958,32.058 7.877,33.164 7.796,34.269 7.495,37.245 7.194,40.22 6.893,43.196 c -0.8,0 -1.601,0 -2.4,0 -0.006,0 -0.012,0 -0.017,0 -0.016,-10e-4 -0.032,-10e-4 -0.047,-10e-4 -0.091,10e-4 -0.153,10e-4 -0.187,0.002 0,-0.001 0,-0.001 0,0 z"
   id="path8"
   inkscape:connector-curvature="0"
   style="fill:none;stroke:#ffffff;stroke-width:4;stroke-linecap:round;stroke-linejoin:round" />
</g>
</svg>