<?xml version="1.0" encoding="utf-8"?>
<!-- Generator: Adobe Illustrator 15.0.2, SVG Export Plug-In . SVG Version: 6.00 Build 0)  -->
<!DOCTYPE svg PUBLIC "-//W3C//DTD SVG 1.1//EN" "http://www.w3.org/Graphics/SVG/1.1/DTD/svg11.dtd">
<svg version="1.1" xmlns="http://www.w3.org/2000/svg" xmlns:xlink="http://www.w3.org/1999/xlink" x="0px" y="0px" width="129.6px"
	 height="158.4px" viewBox="0 0 129.6 158.4" enable-background="new 0 0 129.6 158.4" xml:space="preserve">
<g id="etc_symbol_base">
	<g>
		<path fill="#294663" d="M109.596,51.256c3.749,0,6.789,3.039,6.789,6.788c0,12.625,0,25.25,0,37.875
			c0,3.543-2.873,6.414-6.415,6.414c-2.006,0-4.011,0-6.017,0c-25.772,0-51.545,0-77.317,0c-2.005,0-4.011,0-6.017,0
			c-3.542,0-6.414-2.871-6.414-6.414c0-12.625,0-25.25,0-37.875c0-3.749,3.039-6.788,6.788-6.788
			C50.527,51.256,80.063,51.256,109.596,51.256z"/>
		<path fill="#294663" d="M103.953,51.256c-5.244-8.651-10.488-17.303-15.733-25.954c-1.23-2.029-3.432-3.27-5.805-3.27
			c-5.707,0-11.414,0-17.121,0c-5.707,0-11.414,0-17.12,0c-2.374,0-4.575,1.24-5.805,3.27c-5.245,8.651-10.489,17.303-15.733,25.954
			"/>
		<polyline fill="#294663" points="26.636,102.333 26.636,153.411 65.294,153.411 103.953,153.411 103.953,102.333 		"/>
	</g>
</g>
<g id="etc_symbol_outline">
	<g>
		<path fill="none" stroke="#FFFFFF" stroke-width="4" stroke-linecap="round" stroke-linejoin="round" d="M109.596,51.256
			c3.749,0,6.789,3.039,6.789,6.788c0,12.625,0,25.25,0,37.875c0,3.543-2.873,6.414-6.415,6.414c-2.006,0-4.011,0-6.017,0
			c-25.772,0-51.545,0-77.317,0c-2.005,0-4.011,0-6.017,0c-3.542,0-6.414-2.871-6.414-6.414c0-12.625,0-25.25,0-37.875
			c0-3.749,3.039-6.788,6.788-6.788C50.527,51.256,80.063,51.256,109.596,51.256z"/>
		<path fill="none" stroke="#FFFFFF" stroke-width="4" stroke-linecap="round" stroke-linejoin="round" d="M103.953,51.256
			c-5.244-8.651-10.488-17.303-15.733-25.954c-1.23-2.029-3.432-3.27-5.805-3.27c-5.707,0-11.414,0-17.121,0
			c-5.707,0-11.414,0-17.12,0c-2.374,0-4.575,1.24-5.805,3.27c-5.245,8.651-10.489,17.303-15.733,25.954"/>
		<polyline fill="none" stroke="#FFFFFF" stroke-width="4" stroke-linecap="round" stroke-linejoin="round" points="26.636,102.333 
			26.636,153.411 65.294,153.411 103.953,153.411 103.953,102.333 		"/>
	</g>
</g>
</svg>
