<?xml version="1.0" encoding="utf-8"?>
<!-- Generator: Adobe Illustrator 15.0.2, SVG Export Plug-In . SVG Version: 6.00 Build 0)  -->
<!DOCTYPE svg PUBLIC "-//W3C//DTD SVG 1.1//EN" "http://www.w3.org/Graphics/SVG/1.1/DTD/svg11.dtd">
<svg version="1.1" xmlns="http://www.w3.org/2000/svg" xmlns:xlink="http://www.w3.org/1999/xlink" x="0px" y="0px" width="108px"
	 height="158.4px" viewBox="0 0 108 158.4" enable-background="new 0 0 108 158.4" xml:space="preserve">
<g id="etc_symbol_base">
	<g>
		<g>
			<path fill="#294663" d="M15.314,33.713c0,0.925,0.465,1.709,1.048,2.354c0.917,1.017,2.185,1.778,3.376,2.376
				c1.853,0.931,3.775,1.588,5.757,2.156c2.54,0.729,5.109,1.267,7.712,1.703c6.686,1.121,14,1.593,20.765,1.593
				c6.768,0,14.086-0.473,20.773-1.596c2.604-0.437,5.17-0.973,7.709-1.702c1.981-0.567,3.903-1.226,5.754-2.155
				c1.191-0.599,2.459-1.358,3.375-2.375c0.582-0.646,1.047-1.431,1.047-2.354"/>
			<polyline fill="#294663" points="15.314,33.713 15.314,52.755 92.631,52.755 92.631,33.713 			"/>
		</g>
		<path fill="#294663" d="M15.314,103.831c0,13.632,0,27.264,0,40.896c0,1.331,0.935,2.359,1.846,3.108
			c0.757,0.622,1.579,1.11,2.446,1.555c1.128,0.576,2.292,1.044,3.486,1.462c3.307,1.156,6.676,1.887,10.116,2.463
			c6.686,1.122,14,1.594,20.765,1.594s14.078-0.472,20.765-1.594c3.44-0.576,6.81-1.307,10.116-2.463
			c1.194-0.418,2.357-0.886,3.486-1.462c0.867-0.444,1.688-0.934,2.445-1.555c0.912-0.749,1.846-1.777,1.846-3.108
			c0-13.633,0-27.265,0-40.896"/>
		<path fill="#294663" d="M98.273,52.755c3.75,0,6.789,3.038,6.789,6.788c0,12.625,0,25.25,0,37.875
			c0,3.542-2.872,6.413-6.414,6.413c-2.006,0-4.012,0-6.018,0c-25.771,0-51.544,0-77.317,0c-2.006,0-4.011,0-6.017,0
			c-3.542,0-6.414-2.871-6.414-6.413c0-12.625,0-25.25,0-37.875c0-3.75,3.04-6.788,6.789-6.788
			C39.206,52.755,68.739,52.755,98.273,52.755z"/>
		<path fill="#294663" d="M92.631,33.713c0-0.924-0.465-1.709-1.047-2.354c-0.918-1.017-2.186-1.776-3.378-2.375
			c-1.852-0.931-3.774-1.588-5.757-2.157c-2.541-0.728-5.109-1.266-7.712-1.702c-6.687-1.121-14-1.593-20.765-1.593
			c-6.768,0-14.086,0.473-20.775,1.595c-2.602,0.437-5.169,0.975-7.708,1.702c-1.981,0.569-3.903,1.227-5.754,2.156
			c-1.191,0.599-2.458,1.359-3.375,2.376c-0.582,0.645-1.047,1.429-1.047,2.353c0,0.925,0.465,1.709,1.048,2.354
			c0.917,1.017,2.185,1.778,3.376,2.376c1.853,0.931,3.775,1.588,5.757,2.156c2.54,0.729,5.109,1.267,7.712,1.703
			c6.686,1.121,14,1.593,20.765,1.593c6.768,0,14.086-0.473,20.773-1.596c2.604-0.437,5.17-0.973,7.709-1.702
			c1.981-0.567,3.903-1.226,5.754-2.155c1.191-0.599,2.459-1.358,3.375-2.375C92.166,35.422,92.631,34.637,92.631,33.713z"/>
	</g>
</g>
<g id="etc_symbol_outline">
	<g>
		<g>
			<path fill="none" stroke="#FFFFFF" stroke-width="4" stroke-miterlimit="10" d="M15.314,33.713c0,0.925,0.465,1.709,1.048,2.354
				c0.917,1.017,2.185,1.778,3.376,2.376c1.853,0.931,3.775,1.588,5.757,2.156c2.54,0.729,5.109,1.267,7.712,1.703
				c6.686,1.121,14,1.593,20.765,1.593c6.768,0,14.086-0.473,20.773-1.596c2.604-0.437,5.17-0.973,7.709-1.702
				c1.981-0.567,3.903-1.226,5.754-2.155c1.191-0.599,2.459-1.358,3.375-2.375c0.582-0.646,1.047-1.431,1.047-2.354"/>
			<polyline fill="none" stroke="#FFFFFF" stroke-width="4" stroke-miterlimit="10" points="15.314,33.713 15.314,52.755 
				92.631,52.755 92.631,33.713 			"/>
		</g>
		<path fill="none" stroke="#FFFFFF" stroke-width="4" stroke-miterlimit="10" d="M15.314,103.831c0,13.632,0,27.264,0,40.896
			c0,1.331,0.935,2.359,1.846,3.108c0.757,0.622,1.579,1.11,2.446,1.555c1.128,0.576,2.292,1.044,3.486,1.462
			c3.307,1.156,6.676,1.887,10.116,2.463c6.686,1.122,14,1.594,20.765,1.594s14.078-0.472,20.765-1.594
			c3.44-0.576,6.81-1.307,10.116-2.463c1.194-0.418,2.357-0.886,3.486-1.462c0.867-0.444,1.688-0.934,2.445-1.555
			c0.912-0.749,1.846-1.777,1.846-3.108c0-13.633,0-27.265,0-40.896"/>
		<path fill="none" stroke="#FFFFFF" stroke-width="4" stroke-miterlimit="10" d="M98.273,52.755c3.75,0,6.789,3.038,6.789,6.788
			c0,12.625,0,25.25,0,37.875c0,3.542-2.872,6.413-6.414,6.413c-2.006,0-4.012,0-6.018,0c-25.771,0-51.544,0-77.317,0
			c-2.006,0-4.011,0-6.017,0c-3.542,0-6.414-2.871-6.414-6.413c0-12.625,0-25.25,0-37.875c0-3.75,3.04-6.788,6.789-6.788
			C39.206,52.755,68.739,52.755,98.273,52.755z"/>
		<path fill="none" stroke="#FFFFFF" stroke-width="4" stroke-miterlimit="10" d="M92.631,33.713c0-0.924-0.465-1.709-1.047-2.354
			c-0.918-1.017-2.186-1.776-3.378-2.375c-1.852-0.931-3.774-1.588-5.757-2.157c-2.541-0.728-5.109-1.266-7.712-1.702
			c-6.687-1.121-14-1.593-20.765-1.593c-6.768,0-14.086,0.473-20.775,1.595c-2.602,0.437-5.169,0.975-7.708,1.702
			c-1.981,0.569-3.903,1.227-5.754,2.156c-1.191,0.599-2.458,1.359-3.375,2.376c-0.582,0.645-1.047,1.429-1.047,2.353
			c0,0.925,0.465,1.709,1.048,2.354c0.917,1.017,2.185,1.778,3.376,2.376c1.853,0.931,3.775,1.588,5.757,2.156
			c2.54,0.729,5.109,1.267,7.712,1.703c6.686,1.121,14,1.593,20.765,1.593c6.768,0,14.086-0.473,20.773-1.596
			c2.604-0.437,5.17-0.973,7.709-1.702c1.981-0.567,3.903-1.226,5.754-2.155c1.191-0.599,2.459-1.358,3.375-2.375
			C92.166,35.422,92.631,34.637,92.631,33.713z"/>
	</g>
</g>
</svg>
