<?xml version="1.0" encoding="utf-8"?>
<!-- Generator: Adobe Illustrator 15.0.2, SVG Export Plug-In . SVG Version: 6.00 Build 0)  -->
<!DOCTYPE svg PUBLIC "-//W3C//DTD SVG 1.1//EN" "http://www.w3.org/Graphics/SVG/1.1/DTD/svg11.dtd">
<svg version="1.1" xmlns="http://www.w3.org/2000/svg" xmlns:xlink="http://www.w3.org/1999/xlink" x="0px" y="0px" width="50.4px"
	 height="180px" viewBox="0 0 50.4 180" enable-background="new 0 0 50.4 180" xml:space="preserve">
<g id="etc_symbol_base">
	<path fill="#294663" d="M40.803,10.562c0.912-0.383,1.824-0.766,2.736-1.147c0.572-0.2,1.132-0.301,1.678-0.301
		c0.905,0,1.81,0,2.736,0c-0.184-1.642-0.367-3.284-0.55-4.927C34.723,2.674,30.223,2.521,25.73,2.521
		c-4.492,0-8.991,0.152-21.672,1.665c-0.184,1.643-0.367,3.285-0.55,4.927c0.927,0,1.832,0,2.736,0c0.546,0,1.106,0.101,1.679,0.301
		c0.912,0.382,1.824,0.765,2.735,1.147c-0.101,0.779-0.202,1.558-0.303,2.337c-0.38,2.935-0.748,5.869-1.103,8.807
		c-0.089,0.734-0.177,1.468-0.264,2.202c-0.022,0.185-0.043,0.367-0.065,0.552c-0.005,0.045,0.007,0.09-0.027,0.133
		c-0.029,0.036-0.058,0.072-0.087,0.108c-0.058,0.071-0.116,0.144-0.174,0.216c-0.232,0.288-0.463,0.576-0.695,0.864
		c-0.927,1.153-1.854,2.306-2.78,3.459c-0.245,0.305-0.511,0.589-0.705,0.936c-0.074,0.134-0.123,0.271-0.154,0.42
		c-0.068,0.311-0.078,0.625-0.108,0.939c-0.04,0.408-0.078,0.816-0.117,1.225c-0.16,1.684-0.313,3.368-0.45,5.055
		c-0.239,2.948-0.423,5.898-0.549,8.854C2.825,52.582,2.79,58.493,2.86,64.411c0.035,2.959,0.092,5.918,0.089,8.878
		c-0.001,1.264-0.006,2.528-0.013,3.792c-0.007,1.466-0.082,2.374,0.499,3.792c0.156,0.381,0.353,0.736,0.558,1.091
		c1.173,2.031,2.345,4.063,3.518,6.094c0.596,1.032,0.909,2.203,0.909,3.395c0,8.423,0,16.847,0,25.271c0,5.774,0,11.549,0,17.323
		c0,0.897,0,1.794,0,2.691c0,0.449,0,0.897,0,1.346c0,0.225,0,0.448,0,0.673c0,0.235-0.04,0.465-0.074,0.695
		c-0.265,1.784-0.533,3.567-0.805,5.35c-0.544,3.566-1.102,7.129-1.675,10.69c-0.573,3.562-1.161,7.12-1.764,10.676
		c-0.302,1.778-0.621,3.553-0.862,5.341c-0.126,0.938-0.235,1.877-0.321,2.819c-0.054,0.597-0.165,1.966-0.165,2.566
		c0,0.271,0,0.543,0,0.814c0.281,0,0.563,0,0.844,0c7.376,0,14.754,0,22.13,0c7.377,0,14.754,0,22.131,0c0.281,0,0.563,0,0.844,0
		c0-0.271,0-0.543,0-0.814c0-0.601-0.111-1.97-0.164-2.566c-0.086-0.942-0.194-1.881-0.32-2.819
		c-0.242-1.787-0.561-3.561-0.863-5.338c-0.604-3.557-1.19-7.117-1.764-10.678c-0.572-3.562-1.131-7.125-1.675-10.69
		c-0.272-1.782-0.54-3.565-0.804-5.35c-0.035-0.23-0.075-0.459-0.075-0.695c0-0.224,0-0.448,0-0.673c0-0.448,0-0.897,0-1.346
		c0-0.897,0-1.795,0-2.692c0-5.774,0-11.549,0-17.323c0-8.424,0-16.848,0-25.271c0-1.191,0.313-2.362,0.909-3.395
		c1.173-2.031,2.346-4.063,3.519-6.094c0.204-0.354,0.402-0.709,0.558-1.09c0.58-1.418,0.508-2.326,0.5-3.792
		c-0.007-1.264-0.012-2.527-0.014-3.792c-0.002-2.958,0.055-5.915,0.09-8.873c0.07-5.92,0.035-11.831-0.219-17.747
		c-0.126-2.957-0.311-5.908-0.549-8.858c-0.137-1.687-0.29-3.37-0.449-5.054c-0.039-0.408-0.078-0.816-0.117-1.225
		c-0.031-0.313-0.041-0.628-0.107-0.938c-0.032-0.148-0.08-0.287-0.155-0.42c-0.194-0.347-0.46-0.631-0.705-0.936
		c-0.927-1.153-1.853-2.306-2.78-3.459c-0.23-0.288-0.463-0.576-0.694-0.864c-0.058-0.072-0.116-0.145-0.174-0.216
		c-0.029-0.036-0.058-0.072-0.087-0.108c-0.034-0.043-0.021-0.088-0.027-0.133c-0.021-0.185-0.043-0.367-0.064-0.552
		c-0.088-0.734-0.176-1.468-0.265-2.202c-0.354-2.938-0.722-5.872-1.103-8.807C41.005,12.119,40.904,11.341,40.803,10.562z"/>
</g>
<g id="etc_symbol_outline">
	<path fill="none" stroke="#FFFFFF" stroke-width="4" stroke-linecap="round" stroke-linejoin="round" d="M40.803,10.562
		c0.912-0.383,1.824-0.766,2.736-1.147c0.572-0.2,1.132-0.301,1.678-0.301c0.905,0,1.81,0,2.736,0
		c-0.184-1.642-0.367-3.284-0.55-4.927C34.723,2.674,30.223,2.521,25.73,2.521c-4.492,0-8.991,0.152-21.672,1.665
		c-0.184,1.643-0.367,3.285-0.55,4.927c0.927,0,1.832,0,2.736,0c0.546,0,1.106,0.101,1.679,0.301
		c0.912,0.382,1.824,0.765,2.735,1.147c-0.101,0.779-0.202,1.558-0.303,2.337c-0.38,2.935-0.748,5.869-1.103,8.807
		c-0.089,0.734-0.177,1.468-0.264,2.202c-0.022,0.185-0.043,0.367-0.065,0.552c-0.005,0.045,0.007,0.09-0.027,0.133
		c-0.029,0.036-0.058,0.072-0.087,0.108c-0.058,0.071-0.116,0.144-0.174,0.216c-0.232,0.288-0.463,0.576-0.695,0.864
		c-0.927,1.153-1.854,2.306-2.78,3.459c-0.245,0.305-0.511,0.589-0.705,0.936c-0.074,0.134-0.123,0.271-0.154,0.42
		c-0.068,0.311-0.078,0.625-0.108,0.939c-0.04,0.408-0.078,0.816-0.117,1.225c-0.16,1.684-0.313,3.368-0.45,5.055
		c-0.239,2.948-0.423,5.898-0.549,8.854C2.825,52.582,2.79,58.493,2.86,64.411c0.035,2.959,0.092,5.918,0.089,8.878
		c-0.001,1.264-0.006,2.528-0.013,3.792c-0.007,1.466-0.082,2.374,0.499,3.792c0.156,0.381,0.353,0.736,0.558,1.091
		c1.173,2.031,2.345,4.063,3.518,6.094c0.596,1.032,0.909,2.203,0.909,3.395c0,8.423,0,16.847,0,25.271c0,5.774,0,11.549,0,17.323
		c0,0.897,0,1.794,0,2.691c0,0.449,0,0.897,0,1.346c0,0.225,0,0.448,0,0.673c0,0.235-0.04,0.465-0.074,0.695
		c-0.265,1.784-0.533,3.567-0.805,5.35c-0.544,3.566-1.102,7.129-1.675,10.69c-0.573,3.562-1.161,7.12-1.764,10.676
		c-0.302,1.778-0.621,3.553-0.862,5.341c-0.126,0.938-0.235,1.877-0.321,2.819c-0.054,0.597-0.165,1.966-0.165,2.566
		c0,0.271,0,0.543,0,0.814c0.281,0,0.563,0,0.844,0c7.376,0,14.754,0,22.13,0c7.377,0,14.754,0,22.131,0c0.281,0,0.563,0,0.844,0
		c0-0.271,0-0.543,0-0.814c0-0.601-0.111-1.97-0.164-2.566c-0.086-0.942-0.194-1.881-0.32-2.819
		c-0.242-1.787-0.561-3.561-0.863-5.338c-0.604-3.557-1.19-7.117-1.764-10.678c-0.572-3.562-1.131-7.125-1.675-10.69
		c-0.272-1.782-0.54-3.565-0.804-5.35c-0.035-0.23-0.075-0.459-0.075-0.695c0-0.224,0-0.448,0-0.673c0-0.448,0-0.897,0-1.346
		c0-0.897,0-1.795,0-2.692c0-5.774,0-11.549,0-17.323c0-8.424,0-16.848,0-25.271c0-1.191,0.313-2.362,0.909-3.395
		c1.173-2.031,2.346-4.063,3.519-6.094c0.204-0.354,0.402-0.709,0.558-1.09c0.58-1.418,0.508-2.326,0.5-3.792
		c-0.007-1.264-0.012-2.527-0.014-3.792c-0.002-2.958,0.055-5.915,0.09-8.873c0.07-5.92,0.035-11.831-0.219-17.747
		c-0.126-2.957-0.311-5.908-0.549-8.858c-0.137-1.687-0.29-3.37-0.449-5.054c-0.039-0.408-0.078-0.816-0.117-1.225
		c-0.031-0.313-0.041-0.628-0.107-0.938c-0.032-0.148-0.08-0.287-0.155-0.42c-0.194-0.347-0.46-0.631-0.705-0.936
		c-0.927-1.153-1.853-2.306-2.78-3.459c-0.23-0.288-0.463-0.576-0.694-0.864c-0.058-0.072-0.116-0.145-0.174-0.216
		c-0.029-0.036-0.058-0.072-0.087-0.108c-0.034-0.043-0.021-0.088-0.027-0.133c-0.021-0.185-0.043-0.367-0.064-0.552
		c-0.088-0.734-0.176-1.468-0.265-2.202c-0.354-2.938-0.722-5.872-1.103-8.807C41.005,12.119,40.904,11.341,40.803,10.562z"/>
</g>
</svg>
