<?xml version="1.0" encoding="UTF-8" standalone="no"?>
<!-- Generator: Adobe Illustrator 15.0.2, SVG Export Plug-In . SVG Version: 6.00 Build 0)  -->

<svg
   xmlns:dc="http://purl.org/dc/elements/1.1/"
   xmlns:cc="http://creativecommons.org/ns#"
   xmlns:rdf="http://www.w3.org/1999/02/22-rdf-syntax-ns#"
   xmlns:svg="http://www.w3.org/2000/svg"
   xmlns="http://www.w3.org/2000/svg"
   xmlns:sodipodi="http://sodipodi.sourceforge.net/DTD/sodipodi-0.dtd"
   xmlns:inkscape="http://www.inkscape.org/namespaces/inkscape"
   version="1.1"
   x="0px"
   y="0px"
   width="65.990997"
   height="204.28799"
   viewBox="0 0 65.990994 204.28799"
   enable-background="new 0 0 64.8 198"
   xml:space="preserve"
   id="svg2"
   inkscape:version="0.48.2 r9819"
   sodipodi:docname="S4_Zoom.svg"><metadata
   id="metadata14"><rdf:RDF><cc:Work
       rdf:about=""><dc:format>image/svg+xml</dc:format><dc:type
         rdf:resource="http://purl.org/dc/dcmitype/StillImage" /></cc:Work></rdf:RDF></metadata><defs
   id="defs12" /><sodipodi:namedview
   pagecolor="#ffffff"
   bordercolor="#666666"
   borderopacity="1"
   objecttolerance="10"
   gridtolerance="10"
   guidetolerance="10"
   inkscape:pageopacity="0"
   inkscape:pageshadow="2"
   inkscape:window-width="640"
   inkscape:window-height="480"
   id="namedview10"
   showgrid="false"
   fit-margin-top="2"
   fit-margin-left="2"
   fit-margin-bottom="2"
   fit-margin-right="2"
   inkscape:zoom="1.1919192"
   inkscape:cx="32.485"
   inkscape:cy="102.112"
   inkscape:window-x="0"
   inkscape:window-y="0"
   inkscape:window-maximized="0"
   inkscape:current-layer="svg2" />
<g
   id="etc_symbol_base"
   transform="translate(0.08499847,3.176)">
	<path
   d="m 4.1,138.524 c 0,19.529 0,39.059 0,58.588 9.604,0 19.207,0 28.81,0 9.604,0 19.207,0 28.81,0 0,-19.529 0,-39.059 0,-58.588 0.063,-6.347 0.123,-12.694 0.186,-19.042 0,-13.031 0,-26.062 0,-39.092 0,-2.533 0,-5.066 0,-7.6 -0.949,-0.254 -1.897,-0.508 -2.846,-0.763 -1.125,-0.301 -2.25,-0.603 -3.376,-0.904 0,-0.944 0,-1.89 0,-2.834 0.702,-0.38 1.403,-0.76 2.106,-1.14 C 57.495,62.516 57.201,57.883 56.907,53.251 56.052,44.357 55.196,35.463 54.341,26.569 54.316,26.442 54.292,26.315 54.25,26.196 54.187,26.02 54.079,25.862 53.972,25.704 52.55,23.935 51.128,22.167 49.708,20.398 49.249,16.51 48.769,12.626 48.266,8.744 49.083,8.401 49.9,8.058 50.718,7.716 c 0.572,-0.2 1.133,-0.301 1.679,-0.301 0.904,0 1.81,0 2.736,0 C 54.948,5.773 54.766,4.131 54.582,2.488 41.901,0.977 37.401,0.824 32.909,0.824 c -4.492,0 -8.991,0.152 -21.672,1.665 -0.184,1.643 -0.367,3.285 -0.55,4.927 0.927,0 1.832,0 2.736,0 0.546,0 1.106,0.101 1.678,0.301 0.818,0.343 1.635,0.686 2.453,1.028 -0.503,3.882 -0.984,7.767 -1.443,11.654 -1.421,1.769 -2.843,3.537 -4.264,5.306 -0.107,0.158 -0.215,0.316 -0.278,0.492 -0.042,0.119 -0.065,0.246 -0.09,0.373 -0.856,8.894 -1.711,17.788 -2.567,26.682 -0.294,4.633 -0.588,9.266 -0.882,13.898 0.702,0.38 1.404,0.76 2.106,1.14 0,0.944 0,1.89 0,2.834 -1.125,0.302 -2.25,0.604 -3.376,0.904 -0.948,0.255 -1.896,0.509 -2.845,0.763 0,2.533 0,5.066 0,7.6 0,13.03 0,26.061 0,39.092 0.062,6.347 0.123,12.695 0.185,19.041 z"
   id="path5"
   inkscape:connector-curvature="0"
   style="fill:#294663" />
</g>
<g
   id="etc_symbol_outline"
   transform="translate(0.08499847,3.176)">
	<path
   d="m 4.1,138.524 c 0,19.529 0,39.059 0,58.588 9.604,0 19.207,0 28.81,0 9.604,0 19.207,0 28.81,0 0,-19.529 0,-39.059 0,-58.588 0.063,-6.347 0.123,-12.694 0.186,-19.042 0,-13.031 0,-26.062 0,-39.092 0,-2.533 0,-5.066 0,-7.6 -0.949,-0.254 -1.897,-0.508 -2.846,-0.763 -1.125,-0.301 -2.25,-0.603 -3.376,-0.904 0,-0.944 0,-1.89 0,-2.834 0.702,-0.38 1.403,-0.76 2.106,-1.14 C 57.495,62.516 57.201,57.883 56.907,53.251 56.052,44.357 55.196,35.463 54.341,26.569 54.316,26.442 54.292,26.315 54.25,26.196 54.187,26.02 54.079,25.862 53.972,25.704 52.55,23.935 51.128,22.167 49.708,20.398 49.249,16.51 48.769,12.626 48.266,8.744 49.083,8.401 49.9,8.058 50.718,7.716 c 0.572,-0.2 1.133,-0.301 1.679,-0.301 0.904,0 1.81,0 2.736,0 C 54.948,5.773 54.766,4.131 54.582,2.488 41.901,0.977 37.401,0.824 32.909,0.824 c -4.492,0 -8.991,0.152 -21.672,1.665 -0.184,1.643 -0.367,3.285 -0.55,4.927 0.927,0 1.832,0 2.736,0 0.546,0 1.106,0.101 1.678,0.301 0.818,0.343 1.635,0.686 2.453,1.028 -0.503,3.882 -0.984,7.767 -1.443,11.654 -1.421,1.769 -2.843,3.537 -4.264,5.306 -0.107,0.158 -0.215,0.316 -0.278,0.492 -0.042,0.119 -0.065,0.246 -0.09,0.373 -0.856,8.894 -1.711,17.788 -2.567,26.682 -0.294,4.633 -0.588,9.266 -0.882,13.898 0.702,0.38 1.404,0.76 2.106,1.14 0,0.944 0,1.89 0,2.834 -1.125,0.302 -2.25,0.604 -3.376,0.904 -0.948,0.255 -1.896,0.509 -2.845,0.763 0,2.533 0,5.066 0,7.6 0,13.03 0,26.061 0,39.092 0.062,6.347 0.123,12.695 0.185,19.041 z"
   id="path8"
   inkscape:connector-curvature="0"
   style="fill:none;stroke:#ffffff;stroke-width:4;stroke-linecap:round;stroke-linejoin:round" />
</g>
</svg>