<?xml version="1.0" encoding="UTF-8" standalone="no"?>
<!-- Generator: Adobe Illustrator 15.0.2, SVG Export Plug-In . SVG Version: 6.00 Build 0)  -->

<svg
   xmlns:dc="http://purl.org/dc/elements/1.1/"
   xmlns:cc="http://creativecommons.org/ns#"
   xmlns:rdf="http://www.w3.org/1999/02/22-rdf-syntax-ns#"
   xmlns:svg="http://www.w3.org/2000/svg"
   xmlns="http://www.w3.org/2000/svg"
   xmlns:sodipodi="http://sodipodi.sourceforge.net/DTD/sodipodi-0.dtd"
   xmlns:inkscape="http://www.inkscape.org/namespaces/inkscape"
   version="1.1"
   x="0px"
   y="0px"
   width="55.506001"
   height="183.642"
   viewBox="0 0 55.505999 183.642"
   enable-background="new 0 0 50.4 180"
   xml:space="preserve"
   id="svg2"
   inkscape:version="0.48.2 r9819"
   sodipodi:docname="S4_LED.svg"><metadata
   id="metadata14"><rdf:RDF><cc:Work
       rdf:about=""><dc:format>image/svg+xml</dc:format><dc:type
         rdf:resource="http://purl.org/dc/dcmitype/StillImage" /></cc:Work></rdf:RDF></metadata><defs
   id="defs12" /><sodipodi:namedview
   pagecolor="#ffffff"
   bordercolor="#666666"
   borderopacity="1"
   objecttolerance="10"
   gridtolerance="10"
   guidetolerance="10"
   inkscape:pageopacity="0"
   inkscape:pageshadow="2"
   inkscape:window-width="640"
   inkscape:window-height="480"
   id="namedview10"
   showgrid="false"
   fit-margin-top="2"
   fit-margin-left="2"
   fit-margin-bottom="2"
   fit-margin-right="2"
   inkscape:zoom="1.3111111"
   inkscape:cx="27.746"
   inkscape:cy="91.698"
   inkscape:window-x="0"
   inkscape:window-y="0"
   inkscape:window-maximized="0"
   inkscape:current-layer="svg2" />
<g
   id="etc_symbol_base"
   transform="translate(2.5459992,1.944)">
	<path
   d="m 46.53,8.521 c -2.012,-2.154 -4.022,-4.31 -6.034,-6.465 -5.097,0 -10.192,0 -15.289,0 -5.096,0 -10.193,0 -15.29,0 C 7.907,4.211 5.895,6.366 3.884,8.521 3.331,9.114 3.009,9.883 2.974,10.692 1.859,36.807 1.666,62.375 1.692,88.33 c 1.625,0 3.251,0 4.877,0 0,2.208 0,4.417 0,6.625 -1.432,-0.001 -2.864,-0.003 -4.295,-0.004 -0.007,1.707 -0.014,3.414 -0.021,5.122 1.281,2.015 2.562,4.028 3.842,6.043 0,9.995 0,19.989 0,29.984 0.569,0 1.138,0 1.708,0 0,5.877 0,11.754 0,17.63 -2.116,5.335 -4.232,10.67 -6.349,16.004 0,2.655 0,5.31 0,7.964 7.917,0 15.835,0 23.753,0 7.917,0 15.835,0 23.753,0 0,-2.654 0,-5.309 0,-7.964 -2.117,-5.334 -4.232,-10.669 -6.348,-16.004 0,-5.876 0,-11.753 0,-17.63 0.568,0 1.137,0 1.706,0 0,-9.995 0,-19.989 0,-29.984 1.28,-2.015 2.562,-4.028 3.842,-6.043 -0.007,-1.708 -0.014,-3.415 -0.021,-5.122 -1.432,0.001 -2.863,0.003 -4.295,0.004 0,-2.208 0,-4.417 0,-6.625 1.625,0 3.251,0 4.877,0 C 48.746,62.375 48.554,36.807 47.439,10.691 47.405,9.883 47.083,9.113 46.53,8.521 z"
   id="path5"
   inkscape:connector-curvature="0"
   style="fill:#294663" />
</g>
<g
   id="etc_symbol_outline"
   transform="translate(2.5459992,1.944)">
	<path
   d="m 46.53,8.521 c -2.012,-2.154 -4.022,-4.31 -6.034,-6.465 -5.097,0 -10.192,0 -15.289,0 -5.096,0 -10.193,0 -15.29,0 C 7.907,4.211 5.895,6.366 3.884,8.521 3.331,9.114 3.009,9.883 2.974,10.692 1.859,36.807 1.666,62.375 1.692,88.33 c 1.625,0 3.251,0 4.877,0 0,2.208 0,4.417 0,6.625 -1.432,-0.001 -2.864,-0.003 -4.295,-0.004 -0.007,1.707 -0.014,3.414 -0.021,5.122 1.281,2.015 2.562,4.028 3.842,6.043 0,9.995 0,19.989 0,29.984 0.569,0 1.138,0 1.708,0 0,5.877 0,11.754 0,17.63 -2.116,5.335 -4.232,10.67 -6.349,16.004 0,2.655 0,5.31 0,7.964 7.917,0 15.835,0 23.753,0 7.917,0 15.835,0 23.753,0 0,-2.654 0,-5.309 0,-7.964 -2.117,-5.334 -4.232,-10.669 -6.348,-16.004 0,-5.876 0,-11.753 0,-17.63 0.568,0 1.137,0 1.706,0 0,-9.995 0,-19.989 0,-29.984 1.28,-2.015 2.562,-4.028 3.842,-6.043 -0.007,-1.708 -0.014,-3.415 -0.021,-5.122 -1.432,0.001 -2.863,0.003 -4.295,0.004 0,-2.208 0,-4.417 0,-6.625 1.625,0 3.251,0 4.877,0 C 48.746,62.375 48.554,36.807 47.439,10.691 47.405,9.883 47.083,9.113 46.53,8.521 z"
   id="path8"
   inkscape:connector-curvature="0"
   style="fill:none;stroke:#ffffff;stroke-width:4;stroke-linecap:round;stroke-linejoin:round" />
</g>
</svg>