<?xml version="1.0" encoding="UTF-8" standalone="no"?>
<!-- Generator: Adobe Illustrator 15.0.2, SVG Export Plug-In . SVG Version: 6.00 Build 0)  -->

<svg
   xmlns:dc="http://purl.org/dc/elements/1.1/"
   xmlns:cc="http://creativecommons.org/ns#"
   xmlns:rdf="http://www.w3.org/1999/02/22-rdf-syntax-ns#"
   xmlns:svg="http://www.w3.org/2000/svg"
   xmlns="http://www.w3.org/2000/svg"
   xmlns:sodipodi="http://sodipodi.sourceforge.net/DTD/sodipodi-0.dtd"
   xmlns:inkscape="http://www.inkscape.org/namespaces/inkscape"
   version="1.1"
   x="0px"
   y="0px"
   width="59.060997"
   height="220.92"
   viewBox="0 0 59.060999 220.92"
   enable-background="new 0 0 57.6 223.2"
   xml:space="preserve"
   id="svg2"
   inkscape:version="0.48.2 r9819"
   sodipodi:docname="S4_LED_Zoom.svg"><metadata
   id="metadata14"><rdf:RDF><cc:Work
       rdf:about=""><dc:format>image/svg+xml</dc:format><dc:type
         rdf:resource="http://purl.org/dc/dcmitype/StillImage" /></cc:Work></rdf:RDF></metadata><defs
   id="defs12" /><sodipodi:namedview
   pagecolor="#ffffff"
   bordercolor="#666666"
   borderopacity="1"
   objecttolerance="10"
   gridtolerance="10"
   guidetolerance="10"
   inkscape:pageopacity="0"
   inkscape:pageshadow="2"
   inkscape:window-width="640"
   inkscape:window-height="480"
   id="namedview10"
   showgrid="false"
   fit-margin-top="2"
   fit-margin-left="2"
   fit-margin-bottom="2"
   fit-margin-right="2"
   inkscape:zoom="1.0573477"
   inkscape:cx="29.891999"
   inkscape:cy="110.974"
   inkscape:window-x="0"
   inkscape:window-y="0"
   inkscape:window-maximized="0"
   inkscape:current-layer="svg2" />
<g
   id="etc_symbol_base"
   transform="translate(1.0920001,-1.6540014)">
	<path
   d="m 53.967,207.977 c 0,-36.979 0.002,-73.959 0.002,-110.938 -0.227,-0.241 -0.455,-0.483 -0.682,-0.725 -2.129,-0.021 -4.258,-0.04 -6.387,-0.061 0,-1.441 0,-2.883 0,-4.324 1.627,0 3.252,0 4.878,0 C 51.803,65.974 51.611,40.406 50.496,14.29 50.463,13.481 50.139,12.712 49.587,12.119 47.575,9.965 45.565,7.809 43.553,5.654 c -5.096,0 -10.193,0 -15.29,0 -5.097,0 -10.192,0 -15.289,0 C 10.962,7.809 8.951,9.965 6.94,12.119 6.387,12.712 6.065,13.481 6.03,14.29 4.916,40.407 4.722,65.975 4.749,91.93 c 1.626,0 3.252,0 4.878,0 0,1.441 0,2.883 0,4.324 -2.012,0.021 -4.025,0.04 -6.037,0.061 -0.227,0.241 -0.454,0.483 -0.682,0.725 10e-4,14.865 10e-4,29.729 10e-4,44.595 0,6.348 0,12.695 0,19.043 0.001,15.766 0.001,31.53 0.001,47.296 0,3.533 0,7.066 0,10.6 8.509,0 17.018,0 25.528,0 8.508,0 17.018,0 25.528,0 10e-4,-3.533 10e-4,-7.066 10e-4,-10.597 z"
   id="path5"
   inkscape:connector-curvature="0"
   style="fill:#294663" />
</g>
<g
   id="etc_symbol_outline"
   transform="translate(1.0920001,-1.6540014)">
	<path
   stroke-miterlimit="10"
   d="m 53.967,207.977 c 0,-36.979 0.002,-73.959 0.002,-110.938 -0.227,-0.241 -0.455,-0.483 -0.682,-0.725 -2.129,-0.021 -4.258,-0.04 -6.387,-0.061 0,-1.441 0,-2.883 0,-4.324 1.627,0 3.252,0 4.878,0 C 51.803,65.974 51.611,40.406 50.496,14.29 50.463,13.481 50.139,12.712 49.587,12.119 47.575,9.965 45.565,7.809 43.553,5.654 c -5.096,0 -10.193,0 -15.29,0 -5.097,0 -10.192,0 -15.289,0 C 10.962,7.809 8.951,9.965 6.94,12.119 6.387,12.712 6.065,13.481 6.03,14.29 4.916,40.407 4.722,65.975 4.749,91.93 c 1.626,0 3.252,0 4.878,0 0,1.441 0,2.883 0,4.324 -2.012,0.021 -4.025,0.04 -6.037,0.061 -0.227,0.241 -0.454,0.483 -0.682,0.725 10e-4,14.865 10e-4,29.729 10e-4,44.595 0,6.348 0,12.695 0,19.043 0.001,15.766 0.001,31.53 0.001,47.296 0,3.533 0,7.066 0,10.6 8.509,0 17.018,0 25.528,0 8.508,0 17.018,0 25.528,0 10e-4,-3.533 10e-4,-7.066 10e-4,-10.597 z"
   id="path8"
   inkscape:connector-curvature="0"
   style="fill:none;stroke:#ffffff;stroke-width:4;stroke-miterlimit:10" />
</g>
</svg>