<?xml version="1.0" encoding="UTF-8" standalone="no"?>
<!-- Created with Inkscape (http://www.inkscape.org/) -->

<svg
   xmlns:dc="http://purl.org/dc/elements/1.1/"
   xmlns:cc="http://creativecommons.org/ns#"
   xmlns:rdf="http://www.w3.org/1999/02/22-rdf-syntax-ns#"
   xmlns:svg="http://www.w3.org/2000/svg"
   xmlns="http://www.w3.org/2000/svg"
   xmlns:sodipodi="http://sodipodi.sourceforge.net/DTD/sodipodi-0.dtd"
   xmlns:inkscape="http://www.inkscape.org/namespaces/inkscape"
   width="155.81381mm"
   height="153.4438mm"
   viewBox="0 0 155.81381 153.4438"
   version="1.1"
   id="svg823"
   inkscape:version="0.92.2 (5c3e80d, 2017-08-06)"
   sodipodi:docname="fos4-Px24.svg">
  <defs
     id="defs817" />
  <sodipodi:namedview
     id="base"
     pagecolor="#000000"
     bordercolor="#666666"
     borderopacity="1.0"
     inkscape:pageopacity="0"
     inkscape:pageshadow="2"
     inkscape:zoom="0.7"
     inkscape:cx="407.85621"
     inkscape:cy="336.66146"
     inkscape:document-units="mm"
     inkscape:current-layer="etc_symbol_outline"
     showgrid="false"
     fit-margin-top="0"
     fit-margin-left="0"
     fit-margin-right="0"
     fit-margin-bottom="0"
     inkscape:window-width="1920"
     inkscape:window-height="1017"
     inkscape:window-x="1912"
     inkscape:window-y="-8"
     inkscape:window-maximized="1" />
  <metadata
     id="metadata820">
    <rdf:RDF>
      <cc:Work
         rdf:about="">
        <dc:format>image/svg+xml</dc:format>
        <dc:type
           rdf:resource="http://purl.org/dc/dcmitype/StillImage" />
        <dc:title></dc:title>
      </cc:Work>
    </rdf:RDF>
  </metadata>
  <g
     transform="translate(-216.15816,-72.484741)"
     id="etc_symbol_base">
    <path
       inkscape:connector-curvature="0"
       style="opacity:1;fill:#294663;fill-opacity:1;stroke:none;stroke-width:3;stroke-linecap:round;stroke-linejoin:round;stroke-miterlimit:4;stroke-dasharray:none;stroke-dashoffset:0;stroke-opacity:1"
       d="m 230.86248,91.649086 h 126.40588 c 1.36109,0 2.45684,1.095753 2.45684,2.456845 V 222.50088 c 0,1.36109 -1.09575,2.45684 -2.45684,2.45684 H 230.86248 c -1.36109,0 -2.45684,-1.09575 -2.45684,-2.45684 V 94.105931 c 0,-1.361092 1.09575,-2.456845 2.45684,-2.456845 z"
       id="path1405"
       sodipodi:nodetypes="sssssssss" />
  </g>
  <g
     transform="translate(-216.15816,-72.484741)"
     id="etc_symbol_outline">
    <path
       sodipodi:nodetypes="ccccccccccccccccccccccccccccsccccsccccccccccccscccccccscccccccccccccccccscccccccsscccccscccccccccscccscsscccccccscccscccccccccccccsccccccccccccccccccccsccccscccccccccccccccccccccccccccccc"
       inkscape:connector-curvature="0"
       id="path1396"
       d="m 283.11295,72.484979 -0.46458,1.260391 c -0.0124,0.03215 -3.30026,0.03737 -19.5187,0.03307 -10.72694,-0.0029 -19.55234,0.006 -19.61224,0.01913 -0.0599,0.01312 -0.11499,0.01384 -0.12299,0.0016 -4.34672,0.162121 -8.64182,-0.420849 -12.73669,0.248047 -1.37644,0.247245 -3.09143,0.905261 -4.36666,1.67535 -0.34308,0.207176 -0.66922,0.403706 -0.72502,0.436665 -0.10335,0.06098 -0.33801,0.239467 -0.9865,0.751377 -0.19946,0.157451 -0.65489,0.569283 -1.01182,0.915189 -0.52483,0.508611 -0.72455,0.726239 -1.04439,1.136364 -0.21751,0.278927 -0.43162,0.553096 -0.47542,0.609267 -0.3021,0.387085 -1.04416,1.633378 -1.25264,2.103747 -0.0778,0.175527 -0.19924,0.443238 -0.26975,0.594796 -0.23155,0.497539 -0.29231,0.648777 -0.39687,0.986502 -0.0568,0.183507 -0.16835,0.54257 -0.24805,0.797885 -0.10355,0.331566 -0.19045,0.709004 -0.30334,1.320332 -0.14141,0.766045 -0.1626,0.93508 -0.2036,1.610238 -0.0545,0.898218 -0.0642,48.198301 -0.015,49.171671 0.0697,1.3784 0.38611,2.87071 0.88884,4.19251 0.19546,0.51397 0.38807,0.93365 0.9064,1.97301 0.62476,1.25275 0.67081,1.35561 0.89504,2.01641 0.42953,1.26582 0.58801,2.36789 0.58601,4.06177 -8e-4,0.58524 -0.007,0.68814 -0.0398,0.64544 -0.0359,-0.0473 -0.15241,-0.0505 -1.71824,-0.0501 -1.29227,2.6e-4 -1.69604,0.009 -1.75184,0.0367 -0.17276,0.28339 -0.13783,0.31995 -0.21755,0.67334 l -0.20258,0.009 c -0.32309,0.0139 -0.3054,-0.0413 -0.3054,0.94413 v 0.84284 c 0.0474,0.0499 0.0954,0.0992 0.14314,0.14883 l -1.19011,6.15053 c -0.65434,3.38268 -1.19172,6.193 -1.19372,6.2451 -0.008,0.17498 0.044,0.19533 0.50022,0.19533 0.33692,0 0.41176,-0.008 0.45166,-0.048 0.0263,-0.0264 0.26313,-0.70501 0.52606,-1.50844 0.45256,-1.38282 0.47876,-1.47592 0.49196,-1.73685 0.0155,-0.27755 -0.0311,-0.44825 -0.0977,-0.70331 l 1.28313,-3.94963 1.28364,-3.94911 1.98076,-0.016 c -0.002,0.30703 -0.28963,0.25989 -0.46664,0.26355 l 0.009,5.46065 0.009,5.46065 0.0749,0.31884 c 0.19277,0.81917 0.67951,1.75283 1.30638,2.50631 0.28974,0.34827 0.95814,1.00719 1.37304,1.3534 0.59261,0.4945 0.50803,0.45165 0.97979,0.49455 0.2269,0.0206 0.48801,0.0447 0.57981,0.0537 l 0.1664,0.0155 v -2.20813 l 0.0227,-10.51719 c -0.0287,-0.96355 -0.0191,-1.69809 -0.0191,-2.73316 l -0.43511,-2.81792 v -1.05373 c 0,-1.54277 -0.0599,-2.52674 -0.20567,-3.39721 -0.16341,-0.97559 -0.43256,-1.9184 -0.86662,-3.03392 -1.0473,-1.97755 -1.96568,-3.58109 -2.28151,-5.81722 -0.008,-0.0798 -0.0193,-0.19064 -0.0253,-0.24649 -0.013,-0.11831 -0.0448,-0.61523 -0.0594,-0.92863 -0.005,-0.11968 -0.0107,-0.64205 -0.0114,-1.16065 -0.001,-0.51861 -0.004,-1.24972 -0.006,-1.62471 -0.003,-0.37499 1.8e-4,-44.67436 0.005,-44.762123 0.01,-0.805447 0.13051,-1.586206 0.27286,-2.306317 0.0702,-0.372981 0.11873,-0.565116 0.20463,-0.812356 0.10805,-0.310859 0.24654,-0.685421 0.27544,-0.743622 0.0129,-0.02596 0.0328,-0.09788 0.0439,-0.159681 0.0111,-0.0618 0.0366,-0.131606 0.0569,-0.155546 0.0203,-0.02394 0.0703,-0.122335 0.11059,-0.218075 0.0403,-0.09574 0.13665,-0.291502 0.21445,-0.435115 0.0778,-0.143613 0.15917,-0.306401 0.18087,-0.362252 0.0216,-0.05585 0.0637,-0.128807 0.093,-0.161747 0.0293,-0.03295 0.0532,-0.0765 0.0532,-0.09663 0,-0.02014 0.0566,-0.110482 0.12557,-0.201023 0.069,-0.09054 0.13378,-0.184324 0.14418,-0.208256 0.0104,-0.02394 0.0911,-0.14129 0.17931,-0.260964 0.0882,-0.119679 0.17979,-0.25845 0.20309,-0.308509 0.0233,-0.05006 0.10457,-0.158462 0.18087,-0.240813 0.26012,-0.28063 0.34193,-0.371822 0.60306,-0.673344 0.25541,-0.294909 0.60294,-0.624242 0.77153,-0.731221 0.0465,-0.02949 0.0842,-0.0722 0.0842,-0.09457 0,-0.02236 0.0139,-0.04031 0.0305,-0.04031 0.0361,0 0.0274,0.0062 0.33073,-0.255281 0.0425,-0.0366 0.16451,-0.1236 0.2713,-0.19327 0.10679,-0.06967 0.24021,-0.158779 0.29611,-0.197922 0.54058,-0.378835 0.68782,-0.462137 1.51929,-0.859895 0.71774,-0.343353 1.69935,-0.655315 2.55695,-0.812353 1.21495,-0.222467 -0.87925,-0.206164 26.58494,-0.206187 13.47298,-1.1e-5 24.50833,0.0074 24.52304,0.01654 l 0.46199,0.961697 h 10.96523 v -5.29e-4 -5.713865 z m 10.95282,5.713865 h 10.96521 l 0.46199,-0.961699 c 0.0148,-0.0091 11.05008,-0.01654 24.52306,-0.01654 27.4642,2.7e-5 25.37,-0.01627 26.58494,0.20619 0.85759,0.157038 1.8392,0.469 2.55696,0.812353 0.83145,0.397758 0.97869,0.48106 1.51929,0.859896 0.0559,0.03914 0.18931,0.128251 0.29609,0.197921 0.10679,0.06967 0.22881,0.15667 0.27131,0.19327 0.30331,0.26148 0.29461,0.255281 0.33073,0.255281 0.0167,0 0.0305,0.01794 0.0305,0.04031 0,0.02236 0.0377,0.06508 0.0842,0.09457 0.16859,0.106979 0.51612,0.436312 0.77152,0.731222 0.26112,0.301521 0.34296,0.392713 0.60307,0.673343 0.0763,0.08235 0.15756,0.190751 0.18087,0.240813 0.0233,0.05006 0.11488,0.188828 0.20309,0.308507 0.0882,0.119676 0.16891,0.237027 0.17931,0.260966 0.0103,0.02392 0.0752,0.117716 0.14417,0.208257 0.069,0.09054 0.12557,0.180882 0.12557,0.201019 0,0.02014 0.0241,0.06369 0.0532,0.09664 0.0293,0.03294 0.0714,0.105897 0.093,0.161748 0.0217,0.05585 0.10295,0.218638 0.18087,0.362251 0.0778,0.143613 0.17415,0.339376 0.21445,0.435115 0.0403,0.09574 0.0903,0.194136 0.11059,0.218075 0.0204,0.02395 0.0457,0.09375 0.0568,0.155546 0.0111,0.0618 0.0305,0.133721 0.0434,0.159679 0.0289,0.0582 0.16741,0.432766 0.27544,0.743624 0.0859,0.24724 0.13443,0.439373 0.20462,0.812353 0.14235,0.720111 0.26287,1.500873 0.27287,2.30632 0.005,0.08776 0.008,44.387136 0.005,44.762126 -0.003,0.37499 -0.005,1.1061 -0.006,1.6247 0,0.51861 -0.007,1.04098 -0.0119,1.16066 -0.0145,0.3134 -0.0459,0.81032 -0.0589,0.92862 -0.006,0.0559 -0.0172,0.16671 -0.0254,0.2465 -0.31581,2.23613 -1.2342,3.83966 -2.2815,5.81722 -0.43405,1.11552 -0.70321,2.05832 -0.86662,3.03391 -0.14578,0.87047 -0.20566,1.85444 -0.20566,3.39721 v 1.0542 l -0.43513,2.81792 c 0,1.03507 0.01,1.7696 -0.0191,2.73316 l 0.0222,10.51668 v 2.20813 l 0.1664,-0.0155 c 0.0918,-0.009 0.3529,-0.0331 0.57981,-0.0537 0.47175,-0.0429 0.38716,-3e-5 0.97978,-0.49454 0.41489,-0.34621 1.08331,-1.00514 1.37303,-1.35341 0.62687,-0.75348 1.11363,-1.68714 1.30638,-2.50631 l 0.0749,-0.31884 0.009,-5.46065 0.009,-5.46065 c -0.17701,-0.004 -0.46464,0.0435 -0.46665,-0.26355 l 1.98078,0.016 1.28362,3.94911 1.28313,3.94964 c -0.0666,0.25505 -0.11316,0.42576 -0.0977,0.70331 0.0132,0.26092 0.0394,0.35403 0.49197,1.73684 0.26291,0.80344 0.49974,1.48214 0.52604,1.50844 0.0399,0.0401 0.11475,0.0481 0.45167,0.0481 0.45622,0 0.50821,-0.0203 0.50022,-0.19534 -0.003,-0.0521 -0.5394,-2.86241 -1.19372,-6.24509 l -1.19012,-6.15053 c 0.0478,-0.0496 0.0956,-0.0989 0.14317,-0.14883 v -0.84284 c 0,-0.98543 0.0177,-0.93023 -0.30541,-0.94413 l -0.20259,-0.009 c -0.0797,-0.35339 -0.0448,-0.38995 -0.21755,-0.67334 -0.0558,-0.0277 -0.45958,-0.0364 -1.75183,-0.0367 -1.56585,-5.3e-4 -1.68235,0.003 -1.71825,0.0501 -0.0328,0.0427 -0.039,-0.0602 -0.0398,-0.64544 -0.003,-1.69388 0.1565,-2.79595 0.58603,-4.06177 0.22423,-0.66079 0.27027,-0.76366 0.89503,-2.01641 0.51832,-1.03936 0.71094,-1.45904 0.90641,-1.97301 0.50273,-1.32179 0.81912,-2.81411 0.88884,-4.19251 0.0492,-0.97337 0.0395,-48.273451 -0.0151,-49.171669 -0.041,-0.675158 -0.0622,-0.844192 -0.2036,-1.610238 -0.1129,-0.611328 -0.19978,-0.988766 -0.30334,-1.320332 -0.0797,-0.255314 -0.19124,-0.614378 -0.24805,-0.797885 -0.10456,-0.337725 -0.16534,-0.488966 -0.39687,-0.986502 -0.0705,-0.151561 -0.19196,-0.419269 -0.26975,-0.594796 -0.20846,-0.470368 -0.95054,-1.716662 -1.25264,-2.103747 -0.0438,-0.05617 -0.25792,-0.33034 -0.47543,-0.609267 -0.31983,-0.410125 -0.51954,-0.627753 -1.04436,-1.136364 -0.35695,-0.345906 -0.81238,-0.757738 -1.01185,-0.915188 -0.64849,-0.511911 -0.88315,-0.690396 -0.9865,-0.751377 -0.0558,-0.03296 -0.38192,-0.229489 -0.72501,-0.436666 -1.27524,-0.770088 -2.99021,-1.428104 -4.36666,-1.67535 -4.09487,-0.668895 -8.38996,-0.08593 -12.73669,-0.248047 -0.008,0.01225 -0.0631,0.01156 -0.12298,-0.0016 -0.0599,-0.01312 -8.88532,-0.02201 -19.61224,-0.01913 -16.21846,0.0043 -19.50633,-7.94e-4 -19.51871,-0.03307 l -0.46458,-1.260391 h -10.9523 z"
       style="fill:#ffffff;stroke-width:0.02901278" />
    <path
       inkscape:connector-curvature="0"
       id="rect1379"
       d="m 230.86248,91.649086 h 126.40588 c 1.36109,0 2.45684,1.095753 2.45684,2.456845 V 221.97171 c 0,1.36109 -1.09575,2.45684 -2.45684,2.45684 H 230.86248 c -1.36109,0 -2.45684,-1.09575 -2.45684,-2.45684 V 94.105931 c 0,-1.361092 1.09575,-2.456845 2.45684,-2.456845 z"
       style="opacity:1;fill:none;fill-opacity:1;stroke:#ffffff;stroke-width:3;stroke-linecap:round;stroke-linejoin:round;stroke-miterlimit:4;stroke-dasharray:none;stroke-dashoffset:0;stroke-opacity:1"
       sodipodi:nodetypes="sssssssss" />
  </g>
</svg>
